<svg width="132" height="119" viewBox="0 0 132 119" fill="none" xmlns="http://www.w3.org/2000/svg">
<path d="M60.5 19.8333H22C19.0826 19.8333 16.2847 20.8781 14.2218 22.7379C12.1589 24.5976 11 27.1199 11 29.75V99.1667C11 101.797 12.1589 104.319 14.2218 106.179C16.2847 108.039 19.0826 109.083 22 109.083H99C101.917 109.083 104.715 108.039 106.778 106.179C108.841 104.319 110 101.797 110 99.1667V64.4583M101.75 12.3958C103.938 10.4233 106.906 9.31512 110 9.31512C113.094 9.31512 116.062 10.4233 118.25 12.3958C120.438 14.3684 121.667 17.0437 121.667 19.8333C121.667 22.6229 120.438 25.2983 118.25 27.2708L66 74.375L44 79.3333L49.5 59.5L101.75 12.3958Z" stroke="#1E1E1E" stroke-width="4" stroke-linecap="round" stroke-linejoin="round"/>
</svg>
