<svg width="111" height="125" viewBox="0 0 111 125" fill="none" xmlns="http://www.w3.org/2000/svg">
<path d="M78.625 109.375V98.9583C78.625 93.433 76.6759 88.134 73.2065 84.2269C69.7371 80.3199 65.0315 78.125 60.125 78.125H23.125C18.2185 78.125 13.5129 80.3199 10.0435 84.2269C6.5741 88.134 4.625 93.433 4.625 98.9583V109.375M106.375 109.375V98.9583C106.372 94.3423 105.008 89.8582 102.496 86.21C99.985 82.5618 96.4688 79.9561 92.5 78.8021M74 16.3021C77.9794 17.4495 81.5065 20.0557 84.0253 23.71C86.5441 27.3642 87.9113 31.8585 87.9113 36.4844C87.9113 41.1103 86.5441 45.6046 84.0253 49.2588C81.5065 52.913 77.9794 55.5193 74 56.6667M60.125 36.4583C60.125 47.9643 51.8423 57.2917 41.625 57.2917C31.4077 57.2917 23.125 47.9643 23.125 36.4583C23.125 24.9524 31.4077 15.625 41.625 15.625C51.8423 15.625 60.125 24.9524 60.125 36.4583Z" stroke="#1E1E1E" stroke-width="4" stroke-linecap="round" stroke-linejoin="round"/>
</svg>
